<?xml version="1.0" encoding="utf-8"?>
<!-- Generator: Adobe Illustrator 22.0.1, SVG Export Plug-In . SVG Version: 6.00 Build 0)  -->
<svg version="1.1" id="Layer_1" xmlns="http://www.w3.org/2000/svg" xmlns:xlink="http://www.w3.org/1999/xlink" x="0px" y="0px"
	 viewBox="0 0 24 24" style="enable-background:new 0 0 24 24;" xml:space="preserve">
<style type="text/css">
	.st0{fill:#34495E;}
</style>
<path class="st0" d="M19,17c1.1,0,2-0.9,2-2V5c0-1.1-0.9-2-2-2H5C3.9,3,3,3.9,3,5v16l4-4H19z M12.7,9.1c0.1-0.5,0.4-0.9,0.8-1.3
	c0.3-0.3,0.7-0.6,1.2-0.8c0.2-0.1,0.3,0,0.4,0.2l0.3,0.6c0.1,0.2,0,0.4-0.2,0.4c-0.4,0.2-0.7,0.4-0.9,0.7c-0.2,0.3-0.4,0.8-0.4,1.3
	h1c0.2,0,0.3,0.1,0.3,0.3v2.1c0,0.2-0.1,0.3-0.3,0.3h-2.1c-0.2,0-0.3-0.1-0.3-0.3V11C12.5,10.2,12.5,9.5,12.7,9.1z M8.6,11
	c0-0.8,0.1-1.4,0.2-1.9C9,8.6,9.2,8.2,9.6,7.8c0.3-0.3,0.7-0.6,1.2-0.8c0.2-0.1,0.3,0,0.4,0.2l0.3,0.6c0.1,0.2,0,0.4-0.2,0.4
	c-0.4,0.2-0.7,0.4-0.9,0.7c-0.2,0.3-0.4,0.8-0.4,1.3h1c0.2,0,0.3,0.1,0.3,0.3v2.1c0,0.2-0.1,0.3-0.3,0.3H9c-0.2,0-0.3-0.1-0.3-0.3
	V11z"/>
</svg>
